<mxfile host="app.diagrams.net" modified="2023-07-11T19:04:40.715Z" agent="Mozilla/5.0 (Windows NT 10.0; Win64; x64) AppleWebKit/537.36 (KHTML, like Gecko) Chrome/114.0.0.0 Safari/537.36" etag="f0qdfdsrf3-midZn9vkI" version="21.6.2" type="device">
  <diagram name="PÃ¡gina-1" id="U70TPZcP0qpS3oESuaog">
    <mxGraphModel dx="1035" dy="532" grid="1" gridSize="10" guides="1" tooltips="1" connect="1" arrows="1" fold="1" page="1" pageScale="1" pageWidth="850" pageHeight="1100" math="0" shadow="0">
      <root>
        <mxCell id="0" />
        <mxCell id="1" parent="0" />
        <mxCell id="S3yzE3x7xjCm-AzWG-4F-11" value="users" style="swimlane;" vertex="1" parent="1">
          <mxGeometry x="80" y="30" width="200" height="450" as="geometry" />
        </mxCell>
        <mxCell id="S3yzE3x7xjCm-AzWG-4F-12" value="_idUser" style="text;strokeColor=none;fillColor=none;align=left;verticalAlign=middle;spacingLeft=4;spacingRight=4;overflow=hidden;points=[[0,0.5],[1,0.5]];portConstraint=eastwest;rotatable=0;whiteSpace=wrap;html=1;fontSize=14;" vertex="1" parent="S3yzE3x7xjCm-AzWG-4F-11">
          <mxGeometry y="20" width="200" height="40" as="geometry" />
        </mxCell>
        <mxCell id="S3yzE3x7xjCm-AzWG-4F-13" value="username" style="text;strokeColor=none;fillColor=none;align=left;verticalAlign=middle;spacingLeft=4;spacingRight=4;overflow=hidden;points=[[0,0.5],[1,0.5]];portConstraint=eastwest;rotatable=0;whiteSpace=wrap;html=1;fontSize=14;" vertex="1" parent="S3yzE3x7xjCm-AzWG-4F-11">
          <mxGeometry y="50" width="200" height="40" as="geometry" />
        </mxCell>
        <mxCell id="S3yzE3x7xjCm-AzWG-4F-14" value="password" style="text;strokeColor=none;fillColor=none;align=left;verticalAlign=middle;spacingLeft=4;spacingRight=4;overflow=hidden;points=[[0,0.5],[1,0.5]];portConstraint=eastwest;rotatable=0;whiteSpace=wrap;html=1;fontSize=14;" vertex="1" parent="S3yzE3x7xjCm-AzWG-4F-11">
          <mxGeometry y="90" width="200" height="40" as="geometry" />
        </mxCell>
        <mxCell id="S3yzE3x7xjCm-AzWG-4F-15" value="name" style="text;strokeColor=none;fillColor=none;align=left;verticalAlign=middle;spacingLeft=4;spacingRight=4;overflow=hidden;points=[[0,0.5],[1,0.5]];portConstraint=eastwest;rotatable=0;whiteSpace=wrap;html=1;fontSize=14;" vertex="1" parent="S3yzE3x7xjCm-AzWG-4F-11">
          <mxGeometry y="130" width="200" height="40" as="geometry" />
        </mxCell>
        <mxCell id="S3yzE3x7xjCm-AzWG-4F-16" value="companyName" style="text;strokeColor=none;fillColor=none;align=left;verticalAlign=middle;spacingLeft=4;spacingRight=4;overflow=hidden;points=[[0,0.5],[1,0.5]];portConstraint=eastwest;rotatable=0;whiteSpace=wrap;html=1;fontSize=14;" vertex="1" parent="S3yzE3x7xjCm-AzWG-4F-11">
          <mxGeometry y="210" width="200" height="40" as="geometry" />
        </mxCell>
        <mxCell id="S3yzE3x7xjCm-AzWG-4F-17" value="address" style="text;strokeColor=none;fillColor=none;align=left;verticalAlign=middle;spacingLeft=4;spacingRight=4;overflow=hidden;points=[[0,0.5],[1,0.5]];portConstraint=eastwest;rotatable=0;whiteSpace=wrap;html=1;fontSize=14;" vertex="1" parent="S3yzE3x7xjCm-AzWG-4F-11">
          <mxGeometry y="330" width="200" height="40" as="geometry" />
        </mxCell>
        <mxCell id="S3yzE3x7xjCm-AzWG-4F-18" value="category" style="text;strokeColor=none;fillColor=none;align=left;verticalAlign=middle;spacingLeft=4;spacingRight=4;overflow=hidden;points=[[0,0.5],[1,0.5]];portConstraint=eastwest;rotatable=0;whiteSpace=wrap;html=1;fontSize=14;" vertex="1" parent="S3yzE3x7xjCm-AzWG-4F-11">
          <mxGeometry y="290" width="200" height="40" as="geometry" />
        </mxCell>
        <mxCell id="S3yzE3x7xjCm-AzWG-4F-20" value="description" style="text;strokeColor=none;fillColor=none;align=left;verticalAlign=middle;spacingLeft=4;spacingRight=4;overflow=hidden;points=[[0,0.5],[1,0.5]];portConstraint=eastwest;rotatable=0;whiteSpace=wrap;html=1;fontSize=14;" vertex="1" parent="S3yzE3x7xjCm-AzWG-4F-11">
          <mxGeometry y="250" width="200" height="40" as="geometry" />
        </mxCell>
        <mxCell id="S3yzE3x7xjCm-AzWG-4F-21" value="phone" style="text;strokeColor=none;fillColor=none;align=left;verticalAlign=middle;spacingLeft=4;spacingRight=4;overflow=hidden;points=[[0,0.5],[1,0.5]];portConstraint=eastwest;rotatable=0;whiteSpace=wrap;html=1;fontSize=14;" vertex="1" parent="S3yzE3x7xjCm-AzWG-4F-11">
          <mxGeometry y="170" width="200" height="40" as="geometry" />
        </mxCell>
        <mxCell id="S3yzE3x7xjCm-AzWG-4F-22" value="typeUser" style="text;strokeColor=none;fillColor=none;align=left;verticalAlign=middle;spacingLeft=4;spacingRight=4;overflow=hidden;points=[[0,0.5],[1,0.5]];portConstraint=eastwest;rotatable=0;whiteSpace=wrap;html=1;fontSize=14;" vertex="1" parent="S3yzE3x7xjCm-AzWG-4F-11">
          <mxGeometry y="370" width="200" height="40" as="geometry" />
        </mxCell>
        <mxCell id="S3yzE3x7xjCm-AzWG-4F-69" value="verification" style="text;strokeColor=none;fillColor=none;align=left;verticalAlign=middle;spacingLeft=4;spacingRight=4;overflow=hidden;points=[[0,0.5],[1,0.5]];portConstraint=eastwest;rotatable=0;whiteSpace=wrap;html=1;fontSize=14;" vertex="1" parent="S3yzE3x7xjCm-AzWG-4F-11">
          <mxGeometry y="410" width="200" height="40" as="geometry" />
        </mxCell>
        <mxCell id="S3yzE3x7xjCm-AzWG-4F-36" value="events" style="swimlane;" vertex="1" parent="1">
          <mxGeometry x="360" y="30" width="200" height="330" as="geometry" />
        </mxCell>
        <mxCell id="S3yzE3x7xjCm-AzWG-4F-37" value="_idEvent" style="text;strokeColor=none;fillColor=none;align=left;verticalAlign=middle;spacingLeft=4;spacingRight=4;overflow=hidden;points=[[0,0.5],[1,0.5]];portConstraint=eastwest;rotatable=0;whiteSpace=wrap;html=1;fontSize=14;" vertex="1" parent="S3yzE3x7xjCm-AzWG-4F-36">
          <mxGeometry y="20" width="200" height="40" as="geometry" />
        </mxCell>
        <mxCell id="S3yzE3x7xjCm-AzWG-4F-38" value="eventName" style="text;strokeColor=none;fillColor=none;align=left;verticalAlign=middle;spacingLeft=4;spacingRight=4;overflow=hidden;points=[[0,0.5],[1,0.5]];portConstraint=eastwest;rotatable=0;whiteSpace=wrap;html=1;fontSize=14;" vertex="1" parent="S3yzE3x7xjCm-AzWG-4F-36">
          <mxGeometry y="50" width="200" height="40" as="geometry" />
        </mxCell>
        <mxCell id="S3yzE3x7xjCm-AzWG-4F-39" value="price" style="text;strokeColor=none;fillColor=none;align=left;verticalAlign=middle;spacingLeft=4;spacingRight=4;overflow=hidden;points=[[0,0.5],[1,0.5]];portConstraint=eastwest;rotatable=0;whiteSpace=wrap;html=1;fontSize=14;" vertex="1" parent="S3yzE3x7xjCm-AzWG-4F-36">
          <mxGeometry y="90" width="200" height="40" as="geometry" />
        </mxCell>
        <mxCell id="S3yzE3x7xjCm-AzWG-4F-40" value="category" style="text;strokeColor=none;fillColor=none;align=left;verticalAlign=middle;spacingLeft=4;spacingRight=4;overflow=hidden;points=[[0,0.5],[1,0.5]];portConstraint=eastwest;rotatable=0;whiteSpace=wrap;html=1;fontSize=14;" vertex="1" parent="S3yzE3x7xjCm-AzWG-4F-36">
          <mxGeometry y="130" width="200" height="40" as="geometry" />
        </mxCell>
        <mxCell id="S3yzE3x7xjCm-AzWG-4F-41" value="fecha" style="text;strokeColor=none;fillColor=none;align=left;verticalAlign=middle;spacingLeft=4;spacingRight=4;overflow=hidden;points=[[0,0.5],[1,0.5]];portConstraint=eastwest;rotatable=0;whiteSpace=wrap;html=1;fontSize=14;" vertex="1" parent="S3yzE3x7xjCm-AzWG-4F-36">
          <mxGeometry y="210" width="200" height="40" as="geometry" />
        </mxCell>
        <mxCell id="S3yzE3x7xjCm-AzWG-4F-43" value="destacada" style="text;strokeColor=none;fillColor=none;align=left;verticalAlign=middle;spacingLeft=4;spacingRight=4;overflow=hidden;points=[[0,0.5],[1,0.5]];portConstraint=eastwest;rotatable=0;whiteSpace=wrap;html=1;fontSize=14;" vertex="1" parent="S3yzE3x7xjCm-AzWG-4F-36">
          <mxGeometry y="290" width="200" height="40" as="geometry" />
        </mxCell>
        <mxCell id="S3yzE3x7xjCm-AzWG-4F-44" value="hostedBy" style="text;strokeColor=none;fillColor=none;align=left;verticalAlign=middle;spacingLeft=4;spacingRight=4;overflow=hidden;points=[[0,0.5],[1,0.5]];portConstraint=eastwest;rotatable=0;whiteSpace=wrap;html=1;fontSize=14;" vertex="1" parent="S3yzE3x7xjCm-AzWG-4F-36">
          <mxGeometry y="250" width="200" height="40" as="geometry" />
        </mxCell>
        <mxCell id="S3yzE3x7xjCm-AzWG-4F-45" value="ubication" style="text;strokeColor=none;fillColor=none;align=left;verticalAlign=middle;spacingLeft=4;spacingRight=4;overflow=hidden;points=[[0,0.5],[1,0.5]];portConstraint=eastwest;rotatable=0;whiteSpace=wrap;html=1;fontSize=14;" vertex="1" parent="S3yzE3x7xjCm-AzWG-4F-36">
          <mxGeometry y="170" width="200" height="40" as="geometry" />
        </mxCell>
        <mxCell id="S3yzE3x7xjCm-AzWG-4F-47" value="meetings" style="swimlane;" vertex="1" parent="1">
          <mxGeometry x="610" y="30" width="200" height="250" as="geometry" />
        </mxCell>
        <mxCell id="S3yzE3x7xjCm-AzWG-4F-48" value="_idMeet" style="text;strokeColor=none;fillColor=none;align=left;verticalAlign=middle;spacingLeft=4;spacingRight=4;overflow=hidden;points=[[0,0.5],[1,0.5]];portConstraint=eastwest;rotatable=0;whiteSpace=wrap;html=1;fontSize=14;" vertex="1" parent="S3yzE3x7xjCm-AzWG-4F-47">
          <mxGeometry y="20" width="200" height="40" as="geometry" />
        </mxCell>
        <mxCell id="S3yzE3x7xjCm-AzWG-4F-49" value="meetName" style="text;strokeColor=none;fillColor=none;align=left;verticalAlign=middle;spacingLeft=4;spacingRight=4;overflow=hidden;points=[[0,0.5],[1,0.5]];portConstraint=eastwest;rotatable=0;whiteSpace=wrap;html=1;fontSize=14;" vertex="1" parent="S3yzE3x7xjCm-AzWG-4F-47">
          <mxGeometry y="50" width="200" height="40" as="geometry" />
        </mxCell>
        <mxCell id="S3yzE3x7xjCm-AzWG-4F-50" value="useername" style="text;strokeColor=none;fillColor=none;align=left;verticalAlign=middle;spacingLeft=4;spacingRight=4;overflow=hidden;points=[[0,0.5],[1,0.5]];portConstraint=eastwest;rotatable=0;whiteSpace=wrap;html=1;fontSize=14;" vertex="1" parent="S3yzE3x7xjCm-AzWG-4F-47">
          <mxGeometry y="90" width="200" height="40" as="geometry" />
        </mxCell>
        <mxCell id="S3yzE3x7xjCm-AzWG-4F-51" value="fecha" style="text;strokeColor=none;fillColor=none;align=left;verticalAlign=middle;spacingLeft=4;spacingRight=4;overflow=hidden;points=[[0,0.5],[1,0.5]];portConstraint=eastwest;rotatable=0;whiteSpace=wrap;html=1;fontSize=14;" vertex="1" parent="S3yzE3x7xjCm-AzWG-4F-47">
          <mxGeometry y="130" width="200" height="40" as="geometry" />
        </mxCell>
        <mxCell id="S3yzE3x7xjCm-AzWG-4F-52" value="description" style="text;strokeColor=none;fillColor=none;align=left;verticalAlign=middle;spacingLeft=4;spacingRight=4;overflow=hidden;points=[[0,0.5],[1,0.5]];portConstraint=eastwest;rotatable=0;whiteSpace=wrap;html=1;fontSize=14;" vertex="1" parent="S3yzE3x7xjCm-AzWG-4F-47">
          <mxGeometry y="210" width="200" height="40" as="geometry" />
        </mxCell>
        <mxCell id="S3yzE3x7xjCm-AzWG-4F-55" value="fecha" style="text;strokeColor=none;fillColor=none;align=left;verticalAlign=middle;spacingLeft=4;spacingRight=4;overflow=hidden;points=[[0,0.5],[1,0.5]];portConstraint=eastwest;rotatable=0;whiteSpace=wrap;html=1;fontSize=14;" vertex="1" parent="S3yzE3x7xjCm-AzWG-4F-47">
          <mxGeometry y="170" width="200" height="40" as="geometry" />
        </mxCell>
        <mxCell id="S3yzE3x7xjCm-AzWG-4F-56" value="asistencia" style="swimlane;" vertex="1" parent="1">
          <mxGeometry x="360" y="420" width="200" height="220" as="geometry" />
        </mxCell>
        <mxCell id="S3yzE3x7xjCm-AzWG-4F-57" value="_id" style="text;strokeColor=none;fillColor=none;align=left;verticalAlign=middle;spacingLeft=4;spacingRight=4;overflow=hidden;points=[[0,0.5],[1,0.5]];portConstraint=eastwest;rotatable=0;whiteSpace=wrap;html=1;fontSize=14;" vertex="1" parent="S3yzE3x7xjCm-AzWG-4F-56">
          <mxGeometry y="20" width="200" height="40" as="geometry" />
        </mxCell>
        <mxCell id="S3yzE3x7xjCm-AzWG-4F-58" value="evetName" style="text;strokeColor=none;fillColor=none;align=left;verticalAlign=middle;spacingLeft=4;spacingRight=4;overflow=hidden;points=[[0,0.5],[1,0.5]];portConstraint=eastwest;rotatable=0;whiteSpace=wrap;html=1;fontSize=14;" vertex="1" parent="S3yzE3x7xjCm-AzWG-4F-56">
          <mxGeometry y="60" width="200" height="40" as="geometry" />
        </mxCell>
        <mxCell id="S3yzE3x7xjCm-AzWG-4F-59" value="useername" style="text;strokeColor=none;fillColor=none;align=left;verticalAlign=middle;spacingLeft=4;spacingRight=4;overflow=hidden;points=[[0,0.5],[1,0.5]];portConstraint=eastwest;rotatable=0;whiteSpace=wrap;html=1;fontSize=14;" vertex="1" parent="S3yzE3x7xjCm-AzWG-4F-56">
          <mxGeometry y="100" width="200" height="40" as="geometry" />
        </mxCell>
        <mxCell id="S3yzE3x7xjCm-AzWG-4F-62" value="fecha" style="text;strokeColor=none;fillColor=none;align=left;verticalAlign=middle;spacingLeft=4;spacingRight=4;overflow=hidden;points=[[0,0.5],[1,0.5]];portConstraint=eastwest;rotatable=0;whiteSpace=wrap;html=1;fontSize=14;" vertex="1" parent="S3yzE3x7xjCm-AzWG-4F-56">
          <mxGeometry y="140" width="200" height="40" as="geometry" />
        </mxCell>
        <mxCell id="S3yzE3x7xjCm-AzWG-4F-70" value="confirmado" style="text;strokeColor=none;fillColor=none;align=left;verticalAlign=middle;spacingLeft=4;spacingRight=4;overflow=hidden;points=[[0,0.5],[1,0.5]];portConstraint=eastwest;rotatable=0;whiteSpace=wrap;html=1;fontSize=14;" vertex="1" parent="S3yzE3x7xjCm-AzWG-4F-56">
          <mxGeometry y="180" width="200" height="40" as="geometry" />
        </mxCell>
        <mxCell id="S3yzE3x7xjCm-AzWG-4F-71" value="participation" style="swimlane;" vertex="1" parent="1">
          <mxGeometry x="640" y="340" width="200" height="220" as="geometry" />
        </mxCell>
        <mxCell id="S3yzE3x7xjCm-AzWG-4F-72" value="_id" style="text;strokeColor=none;fillColor=none;align=left;verticalAlign=middle;spacingLeft=4;spacingRight=4;overflow=hidden;points=[[0,0.5],[1,0.5]];portConstraint=eastwest;rotatable=0;whiteSpace=wrap;html=1;fontSize=14;" vertex="1" parent="S3yzE3x7xjCm-AzWG-4F-71">
          <mxGeometry y="20" width="200" height="40" as="geometry" />
        </mxCell>
        <mxCell id="S3yzE3x7xjCm-AzWG-4F-73" value="eventName" style="text;strokeColor=none;fillColor=none;align=left;verticalAlign=middle;spacingLeft=4;spacingRight=4;overflow=hidden;points=[[0,0.5],[1,0.5]];portConstraint=eastwest;rotatable=0;whiteSpace=wrap;html=1;fontSize=14;" vertex="1" parent="S3yzE3x7xjCm-AzWG-4F-71">
          <mxGeometry y="60" width="200" height="40" as="geometry" />
        </mxCell>
        <mxCell id="S3yzE3x7xjCm-AzWG-4F-74" value="useername" style="text;strokeColor=none;fillColor=none;align=left;verticalAlign=middle;spacingLeft=4;spacingRight=4;overflow=hidden;points=[[0,0.5],[1,0.5]];portConstraint=eastwest;rotatable=0;whiteSpace=wrap;html=1;fontSize=14;" vertex="1" parent="S3yzE3x7xjCm-AzWG-4F-71">
          <mxGeometry y="100" width="200" height="40" as="geometry" />
        </mxCell>
        <mxCell id="S3yzE3x7xjCm-AzWG-4F-75" value="fecha" style="text;strokeColor=none;fillColor=none;align=left;verticalAlign=middle;spacingLeft=4;spacingRight=4;overflow=hidden;points=[[0,0.5],[1,0.5]];portConstraint=eastwest;rotatable=0;whiteSpace=wrap;html=1;fontSize=14;" vertex="1" parent="S3yzE3x7xjCm-AzWG-4F-71">
          <mxGeometry y="140" width="200" height="40" as="geometry" />
        </mxCell>
        <mxCell id="S3yzE3x7xjCm-AzWG-4F-77" value="description" style="text;strokeColor=none;fillColor=none;align=left;verticalAlign=middle;spacingLeft=4;spacingRight=4;overflow=hidden;points=[[0,0.5],[1,0.5]];portConstraint=eastwest;rotatable=0;whiteSpace=wrap;html=1;fontSize=14;" vertex="1" parent="S3yzE3x7xjCm-AzWG-4F-71">
          <mxGeometry y="180" width="200" height="40" as="geometry" />
        </mxCell>
      </root>
    </mxGraphModel>
  </diagram>
</mxfile>
